<?xml version="1.0" encoding="UTF-8" standalone="no"?>
<!DOCTYPE svg PUBLIC "-//W3C//DTD SVG 1.1//EN"
 "http://www.w3.org/Graphics/SVG/1.1/DTD/svg11.dtd">
<!-- Generated by graphviz version 2.38.0 (20140413.2041)
 -->
<!-- Title: models_diagram Pages: 1 -->
<svg width="748pt" height="411pt"
 viewBox="0.00 0.00 747.55 411.00" xmlns="http://www.w3.org/2000/svg" xmlns:xlink="http://www.w3.org/1999/xlink">
<g id="graph0" class="graph" transform="scale(1 1) rotate(0) translate(4 407)">
<title>models_diagram</title>
<polygon fill="none" stroke="none" points="-4,4 -4,-407 743.55,-407 743.55,4 -4,4"/>
<!-- _diagram_info -->
<g id="node1" class="node"><title>_diagram_info</title>
<text text-anchor="start" x="8" y="-381.6" font-family="Times,serif" font-size="13.00">Models diagram</text>
<text text-anchor="start" x="8" y="-368.6" font-family="Times,serif" font-size="13.00">Date: Jul 18 2016 &#45; 20:05</text>
<text text-anchor="start" x="8" y="-355.6" font-family="Times,serif" font-size="13.00">Migration version: 20160718225800</text>
<text text-anchor="start" x="8" y="-342.6" font-family="Times,serif" font-size="13.00">Generated by RailRoady 1.5.1</text>
<text text-anchor="start" x="8" y="-329.6" font-family="Times,serif" font-size="13.00">http://railroady.prestonlee.com</text>
</g>
<!-- Category -->
<g id="node2" class="node"><title>Category</title>
<path fill="none" stroke="black" d="M237.825,-316.5C237.825,-316.5 461.55,-316.5 461.55,-316.5 467.55,-316.5 473.55,-322.5 473.55,-328.5 473.55,-328.5 473.55,-390.5 473.55,-390.5 473.55,-396.5 467.55,-402.5 461.55,-402.5 461.55,-402.5 237.825,-402.5 237.825,-402.5 231.825,-402.5 225.825,-396.5 225.825,-390.5 225.825,-390.5 225.825,-328.5 225.825,-328.5 225.825,-322.5 231.825,-316.5 237.825,-316.5"/>
<text text-anchor="middle" x="349.688" y="-387.3" font-family="Times,serif" font-size="14.00">Category</text>
<polyline fill="none" stroke="black" points="225.825,-380.5 473.55,-380.5 "/>
<text text-anchor="start" x="233.825" y="-365.3" font-family="Times,serif" font-size="14.00">id :integer</text>
<text text-anchor="start" x="233.825" y="-351.3" font-family="Times,serif" font-size="14.00">name :character varying</text>
<text text-anchor="start" x="233.825" y="-337.3" font-family="Times,serif" font-size="14.00">created_at :timestamp without time zone</text>
<text text-anchor="start" x="233.825" y="-323.3" font-family="Times,serif" font-size="14.00">updated_at :timestamp without time zone</text>
</g>
<!-- Inventory -->
<g id="node3" class="node"><title>Inventory</title>
<path fill="none" stroke="black" d="M237.825,-151.5C237.825,-151.5 461.55,-151.5 461.55,-151.5 467.55,-151.5 473.55,-157.5 473.55,-163.5 473.55,-163.5 473.55,-267.5 473.55,-267.5 473.55,-273.5 467.55,-279.5 461.55,-279.5 461.55,-279.5 237.825,-279.5 237.825,-279.5 231.825,-279.5 225.825,-273.5 225.825,-267.5 225.825,-267.5 225.825,-163.5 225.825,-163.5 225.825,-157.5 231.825,-151.5 237.825,-151.5"/>
<text text-anchor="middle" x="349.688" y="-264.3" font-family="Times,serif" font-size="14.00">Inventory</text>
<polyline fill="none" stroke="black" points="225.825,-257.5 473.55,-257.5 "/>
<text text-anchor="start" x="233.825" y="-242.3" font-family="Times,serif" font-size="14.00">description :character varying</text>
<text text-anchor="start" x="233.825" y="-228.3" font-family="Times,serif" font-size="14.00">serial :integer</text>
<text text-anchor="start" x="233.825" y="-214.3" font-family="Times,serif" font-size="14.00">wheelsize :integer</text>
<text text-anchor="start" x="233.825" y="-200.3" font-family="Times,serif" font-size="14.00">id :integer</text>
<text text-anchor="start" x="233.825" y="-186.3" font-family="Times,serif" font-size="14.00">category_id :integer</text>
<text text-anchor="start" x="233.825" y="-172.3" font-family="Times,serif" font-size="14.00">created_at :timestamp without time zone</text>
<text text-anchor="start" x="233.825" y="-158.3" font-family="Times,serif" font-size="14.00">updated_at :timestamp without time zone</text>
</g>
<!-- Category&#45;&gt;Inventory -->
<g id="edge1" class="edge"><title>Category&#45;&gt;Inventory</title>
<path fill="none" stroke="#e345c4" d="M349.688,-308.275C349.688,-302.329 349.688,-296.171 349.688,-289.986"/>
<ellipse fill="none" stroke="#e345c4" cx="349.688" cy="-312.28" rx="4" ry="4"/>
<polygon fill="#e345c4" stroke="#e345c4" points="349.688,-289.588 354.188,-279.588 349.688,-284.588 349.688,-279.588 349.688,-279.588 349.688,-279.588 349.688,-284.588 345.188,-279.588 349.688,-289.588 349.688,-289.588"/>
</g>
<!-- Work -->
<g id="node5" class="node"><title>Work</title>
<path fill="none" stroke="black" d="M370.825,-0.5C370.825,-0.5 594.55,-0.5 594.55,-0.5 600.55,-0.5 606.55,-6.5 606.55,-12.5 606.55,-12.5 606.55,-102.5 606.55,-102.5 606.55,-108.5 600.55,-114.5 594.55,-114.5 594.55,-114.5 370.825,-114.5 370.825,-114.5 364.825,-114.5 358.825,-108.5 358.825,-102.5 358.825,-102.5 358.825,-12.5 358.825,-12.5 358.825,-6.5 364.825,-0.5 370.825,-0.5"/>
<text text-anchor="middle" x="482.688" y="-99.3" font-family="Times,serif" font-size="14.00">Work</text>
<polyline fill="none" stroke="black" points="358.825,-92.5 606.55,-92.5 "/>
<text text-anchor="start" x="366.825" y="-77.3" font-family="Times,serif" font-size="14.00">id :integer</text>
<text text-anchor="start" x="366.825" y="-63.3" font-family="Times,serif" font-size="14.00">description :character varying</text>
<text text-anchor="start" x="366.825" y="-49.3" font-family="Times,serif" font-size="14.00">user_id :integer</text>
<text text-anchor="start" x="366.825" y="-35.3" font-family="Times,serif" font-size="14.00">created_at :timestamp without time zone</text>
<text text-anchor="start" x="366.825" y="-21.3" font-family="Times,serif" font-size="14.00">updated_at :timestamp without time zone</text>
<text text-anchor="start" x="366.825" y="-7.3" font-family="Times,serif" font-size="14.00">inventory_id :integer</text>
</g>
<!-- Inventory&#45;&gt;Work -->
<g id="edge2" class="edge"><title>Inventory&#45;&gt;Work</title>
<path fill="none" stroke="#4cfde8" d="M408.786,-145.181C415.579,-137.214 422.476,-129.125 429.188,-121.251"/>
<ellipse fill="none" stroke="#4cfde8" cx="405.996" cy="-148.455" rx="4.00002" ry="4.00002"/>
<ellipse fill="#4cfde8" stroke="#4cfde8" cx="432.182" cy="-117.739" rx="4.00002" ry="4.00002"/>
</g>
<!-- User -->
<g id="node4" class="node"><title>User</title>
<path fill="none" stroke="black" d="M503.825,-165.5C503.825,-165.5 727.55,-165.5 727.55,-165.5 733.55,-165.5 739.55,-171.5 739.55,-177.5 739.55,-177.5 739.55,-253.5 739.55,-253.5 739.55,-259.5 733.55,-265.5 727.55,-265.5 727.55,-265.5 503.825,-265.5 503.825,-265.5 497.825,-265.5 491.825,-259.5 491.825,-253.5 491.825,-253.5 491.825,-177.5 491.825,-177.5 491.825,-171.5 497.825,-165.5 503.825,-165.5"/>
<text text-anchor="middle" x="615.688" y="-250.3" font-family="Times,serif" font-size="14.00">User</text>
<polyline fill="none" stroke="black" points="491.825,-243.5 739.55,-243.5 "/>
<text text-anchor="start" x="499.825" y="-228.3" font-family="Times,serif" font-size="14.00">id :integer</text>
<text text-anchor="start" x="499.825" y="-214.3" font-family="Times,serif" font-size="14.00">name :character varying</text>
<text text-anchor="start" x="499.825" y="-200.3" font-family="Times,serif" font-size="14.00">email :character varying</text>
<text text-anchor="start" x="499.825" y="-186.3" font-family="Times,serif" font-size="14.00">created_at :timestamp without time zone</text>
<text text-anchor="start" x="499.825" y="-172.3" font-family="Times,serif" font-size="14.00">updated_at :timestamp without time zone</text>
</g>
<!-- User&#45;&gt;Work -->
<g id="edge3" class="edge"><title>User&#45;&gt;Work</title>
<path fill="none" stroke="#aaac52" d="M568.399,-159.034C558.31,-147.2 547.576,-134.609 537.24,-122.486"/>
<ellipse fill="none" stroke="#aaac52" cx="571.011" cy="-162.097" rx="4.00002" ry="4.00002"/>
<polygon fill="#aaac52" stroke="#aaac52" points="537.004,-122.209 533.94,-111.68 533.76,-118.404 530.516,-114.599 530.516,-114.599 530.516,-114.599 533.76,-118.404 527.091,-117.519 537.004,-122.209 537.004,-122.209"/>
</g>
</g>
</svg>
