<?xml version="1.0" encoding="UTF-8" standalone="no"?>
<!DOCTYPE svg PUBLIC "-//W3C//DTD SVG 1.1//EN"
 "http://www.w3.org/Graphics/SVG/1.1/DTD/svg11.dtd">
<!-- Generated by graphviz version 2.38.0 (20140413.2041)
 -->
<!-- Title: models_diagram Pages: 1 -->
<svg width="482pt" height="260pt"
 viewBox="0.00 0.00 481.55 260.00" xmlns="http://www.w3.org/2000/svg" xmlns:xlink="http://www.w3.org/1999/xlink">
<g id="graph0" class="graph" transform="scale(1 1) rotate(0) translate(4 256)">
<title>models_diagram</title>
<polygon fill="none" stroke="none" points="-4,4 -4,-256 477.55,-256 477.55,4 -4,4"/>
<!-- _diagram_info -->
<g id="node1" class="node"><title>_diagram_info</title>
<text text-anchor="start" x="8" y="-230.6" font-family="Times,serif" font-size="13.00">Models diagram</text>
<text text-anchor="start" x="8" y="-217.6" font-family="Times,serif" font-size="13.00">Date: Jul 18 2016 &#45; 19:16</text>
<text text-anchor="start" x="8" y="-204.6" font-family="Times,serif" font-size="13.00">Migration version: 20160718220806</text>
<text text-anchor="start" x="8" y="-191.6" font-family="Times,serif" font-size="13.00">Generated by RailRoady 1.5.1</text>
<text text-anchor="start" x="8" y="-178.6" font-family="Times,serif" font-size="13.00">http://railroady.prestonlee.com</text>
</g>
<!-- Category -->
<g id="node2" class="node"><title>Category</title>
<path fill="none" stroke="black" d="M237.825,-165.5C237.825,-165.5 461.55,-165.5 461.55,-165.5 467.55,-165.5 473.55,-171.5 473.55,-177.5 473.55,-177.5 473.55,-239.5 473.55,-239.5 473.55,-245.5 467.55,-251.5 461.55,-251.5 461.55,-251.5 237.825,-251.5 237.825,-251.5 231.825,-251.5 225.825,-245.5 225.825,-239.5 225.825,-239.5 225.825,-177.5 225.825,-177.5 225.825,-171.5 231.825,-165.5 237.825,-165.5"/>
<text text-anchor="middle" x="349.688" y="-236.3" font-family="Times,serif" font-size="14.00">Category</text>
<polyline fill="none" stroke="black" points="225.825,-229.5 473.55,-229.5 "/>
<text text-anchor="start" x="233.825" y="-214.3" font-family="Times,serif" font-size="14.00">id :integer</text>
<text text-anchor="start" x="233.825" y="-200.3" font-family="Times,serif" font-size="14.00">name :character varying</text>
<text text-anchor="start" x="233.825" y="-186.3" font-family="Times,serif" font-size="14.00">created_at :timestamp without time zone</text>
<text text-anchor="start" x="233.825" y="-172.3" font-family="Times,serif" font-size="14.00">updated_at :timestamp without time zone</text>
</g>
<!-- Inventory -->
<g id="node3" class="node"><title>Inventory</title>
<path fill="none" stroke="black" d="M237.825,-0.5C237.825,-0.5 461.55,-0.5 461.55,-0.5 467.55,-0.5 473.55,-6.5 473.55,-12.5 473.55,-12.5 473.55,-116.5 473.55,-116.5 473.55,-122.5 467.55,-128.5 461.55,-128.5 461.55,-128.5 237.825,-128.5 237.825,-128.5 231.825,-128.5 225.825,-122.5 225.825,-116.5 225.825,-116.5 225.825,-12.5 225.825,-12.5 225.825,-6.5 231.825,-0.5 237.825,-0.5"/>
<text text-anchor="middle" x="349.688" y="-113.3" font-family="Times,serif" font-size="14.00">Inventory</text>
<polyline fill="none" stroke="black" points="225.825,-106.5 473.55,-106.5 "/>
<text text-anchor="start" x="233.825" y="-91.3" font-family="Times,serif" font-size="14.00">description :character varying</text>
<text text-anchor="start" x="233.825" y="-77.3" font-family="Times,serif" font-size="14.00">serial :integer</text>
<text text-anchor="start" x="233.825" y="-63.3" font-family="Times,serif" font-size="14.00">wheelsize :integer</text>
<text text-anchor="start" x="233.825" y="-49.3" font-family="Times,serif" font-size="14.00">id :integer</text>
<text text-anchor="start" x="233.825" y="-35.3" font-family="Times,serif" font-size="14.00">category_id :integer</text>
<text text-anchor="start" x="233.825" y="-21.3" font-family="Times,serif" font-size="14.00">created_at :timestamp without time zone</text>
<text text-anchor="start" x="233.825" y="-7.3" font-family="Times,serif" font-size="14.00">updated_at :timestamp without time zone</text>
</g>
<!-- Category&#45;&gt;Inventory -->
<g id="edge1" class="edge"><title>Category&#45;&gt;Inventory</title>
<path fill="none" stroke="#e7b35c" d="M349.688,-157.275C349.688,-151.329 349.688,-145.171 349.688,-138.986"/>
<ellipse fill="none" stroke="#e7b35c" cx="349.688" cy="-161.28" rx="4" ry="4"/>
<polygon fill="#e7b35c" stroke="#e7b35c" points="349.688,-138.588 354.188,-128.588 349.688,-133.588 349.688,-128.588 349.688,-128.588 349.688,-128.588 349.688,-133.588 345.188,-128.588 349.688,-138.588 349.688,-138.588"/>
</g>
</g>
</svg>
