<?xml version="1.0" encoding="UTF-8" standalone="no"?>
<!DOCTYPE svg PUBLIC "-//W3C//DTD SVG 1.1//EN"
 "http://www.w3.org/Graphics/SVG/1.1/DTD/svg11.dtd">
<!-- Generated by graphviz version 2.38.0 (20140413.2041)
 -->
<!-- Title: models_diagram Pages: 1 -->
<svg width="392pt" height="225pt"
 viewBox="0.00 0.00 391.69 225.00" xmlns="http://www.w3.org/2000/svg" xmlns:xlink="http://www.w3.org/1999/xlink">
<g id="graph0" class="graph" transform="scale(1 1) rotate(0) translate(4 221)">
<title>models_diagram</title>
<polygon fill="none" stroke="none" points="-4,4 -4,-221 387.688,-221 387.688,4 -4,4"/>
<!-- _diagram_info -->
<g id="node1" class="node"><title>_diagram_info</title>
<text text-anchor="start" x="8" y="-202.6" font-family="Times,serif" font-size="13.00">Models diagram</text>
<text text-anchor="start" x="8" y="-189.6" font-family="Times,serif" font-size="13.00">Date: Jul 18 2016 &#45; 20:05</text>
<text text-anchor="start" x="8" y="-176.6" font-family="Times,serif" font-size="13.00">Migration version: 20160718225800</text>
<text text-anchor="start" x="8" y="-163.6" font-family="Times,serif" font-size="13.00">Generated by RailRoady 1.5.1</text>
<text text-anchor="start" x="8" y="-150.6" font-family="Times,serif" font-size="13.00">http://railroady.prestonlee.com</text>
</g>
<!-- Category -->
<g id="node2" class="node"><title>Category</title>
<ellipse fill="none" stroke="black" cx="267.688" cy="-180.5" rx="42.5456" ry="18"/>
<text text-anchor="middle" x="267.688" y="-176.3" font-family="Times,serif" font-size="14.00">Category</text>
</g>
<!-- Inventory -->
<g id="node3" class="node"><title>Inventory</title>
<ellipse fill="none" stroke="black" cx="267.688" cy="-90" rx="44.475" ry="18"/>
<text text-anchor="middle" x="267.688" y="-85.8" font-family="Times,serif" font-size="14.00">Inventory</text>
</g>
<!-- Category&#45;&gt;Inventory -->
<g id="edge1" class="edge"><title>Category&#45;&gt;Inventory</title>
<path fill="none" stroke="#3c1782" d="M267.688,-154.189C267.688,-142.971 267.688,-129.752 267.688,-118.311"/>
<ellipse fill="none" stroke="#3c1782" cx="267.688" cy="-158.436" rx="4" ry="4"/>
<polygon fill="#3c1782" stroke="#3c1782" points="267.688,-118.011 272.188,-108.011 267.688,-113.011 267.688,-108.011 267.688,-108.011 267.688,-108.011 267.688,-113.011 263.188,-108.011 267.688,-118.011 267.688,-118.011"/>
</g>
<!-- Work -->
<g id="node5" class="node"><title>Work</title>
<ellipse fill="none" stroke="black" cx="311.688" cy="-18" rx="29.5766" ry="18"/>
<text text-anchor="middle" x="311.688" y="-13.8" font-family="Times,serif" font-size="14.00">Work</text>
</g>
<!-- Inventory&#45;&gt;Work -->
<g id="edge2" class="edge"><title>Inventory&#45;&gt;Work</title>
<path fill="none" stroke="#17c360" d="M282.509,-65.4214C287.229,-57.911 292.446,-49.6125 297.146,-42.1339"/>
<ellipse fill="none" stroke="#17c360" cx="280.244" cy="-69.0244" rx="4.00002" ry="4.00002"/>
<ellipse fill="#17c360" stroke="#17c360" cx="299.509" cy="-38.3747" rx="4.00002" ry="4.00002"/>
</g>
<!-- User -->
<g id="node4" class="node"><title>User</title>
<ellipse fill="none" stroke="black" cx="356.688" cy="-90" rx="27" ry="18"/>
<text text-anchor="middle" x="356.688" y="-85.8" font-family="Times,serif" font-size="14.00">User</text>
</g>
<!-- User&#45;&gt;Work -->
<g id="edge3" class="edge"><title>User&#45;&gt;Work</title>
<path fill="none" stroke="#cf8748" d="M341.977,-66.116C337.429,-59.0421 332.397,-51.2151 327.763,-44.0056"/>
<ellipse fill="none" stroke="#cf8748" cx="344.313" cy="-69.7512" rx="4.00002" ry="4.00002"/>
<polygon fill="#cf8748" stroke="#cf8748" points="327.578,-43.7188 325.956,-32.8736 324.875,-39.5129 322.171,-35.307 322.171,-35.307 322.171,-35.307 324.875,-39.5129 318.386,-37.7404 327.578,-43.7188 327.578,-43.7188"/>
</g>
</g>
</svg>
